<svg xmlns="http://www.w3.org/2000/svg" viewBox="0 0 576 80" shape-rendering="crispEdges" fill="#fff"><g><rect x="72" y="0" width="24" height="10"/><rect x="114" y="0" width="30" height="10"/><rect x="294" y="0" width="30" height="10"/><rect x="348" y="0" width="30" height="10"/><rect x="420" y="0" width="18" height="10"/><rect x="516" y="0" width="30" height="10"/><rect x="78" y="10" width="18" height="10"/><rect x="120" y="10" width="18" height="10"/><rect x="300" y="10" width="18" height="10"/><rect x="354" y="10" width="18" height="10"/><rect x="522" y="10" width="18" height="10"/><rect x="6" y="20" width="30" height="10"/><rect x="42" y="20" width="24" height="10"/><rect x="78" y="20" width="18" height="10"/><rect x="108" y="20" width="42" height="10"/><rect x="168" y="20" width="48" height="10"/><rect x="234" y="20" width="36" height="10"/><rect x="288" y="20" width="42" height="10"/><rect x="354" y="20" width="42" height="10"/><rect x="414" y="20" width="24" height="10"/><rect x="450" y="20" width="48" height="10"/><rect x="522" y="20" width="18" height="10"/><rect x="546" y="20" width="30" height="10"/><rect x="12" y="30" width="18" height="10"/><rect x="42" y="30" width="18" height="10"/><rect x="78" y="30" width="18" height="10"/><rect x="120" y="30" width="18" height="10"/><rect x="174" y="30" width="18" height="10"/><rect x="204" y="30" width="18" height="10"/><rect x="258" y="30" width="18" height="10"/><rect x="300" y="30" width="18" height="10"/><rect x="354" y="30" width="18" height="10"/><rect x="384" y="30" width="18" height="10"/><rect x="420" y="30" width="18" height="10"/><rect x="456" y="30" width="18" height="10"/><rect x="486" y="30" width="18" height="10"/><rect x="522" y="30" width="18" height="10"/><rect x="552" y="30" width="18" height="10"/><rect x="12" y="40" width="18" height="10"/><rect x="42" y="40" width="18" height="10"/><rect x="78" y="40" width="18" height="10"/><rect x="120" y="40" width="18" height="10"/><rect x="174" y="40" width="18" height="10"/><rect x="234" y="40" width="42" height="10"/><rect x="300" y="40" width="18" height="10"/><rect x="354" y="40" width="18" height="10"/><rect x="384" y="40" width="18" height="10"/><rect x="420" y="40" width="18" height="10"/><rect x="456" y="40" width="18" height="10"/><rect x="486" y="40" width="18" height="10"/><rect x="522" y="40" width="36" height="10"/><rect x="12" y="50" width="18" height="10"/><rect x="42" y="50" width="18" height="10"/><rect x="78" y="50" width="18" height="10"/><rect x="120" y="50" width="18" height="10"/><rect x="144" y="50" width="18" height="10"/><rect x="174" y="50" width="18" height="10"/><rect x="228" y="50" width="18" height="10"/><rect x="258" y="50" width="18" height="10"/><rect x="300" y="50" width="18" height="10"/><rect x="324" y="50" width="18" height="10"/><rect x="354" y="50" width="18" height="10"/><rect x="384" y="50" width="18" height="10"/><rect x="420" y="50" width="18" height="10"/><rect x="456" y="50" width="18" height="10"/><rect x="486" y="50" width="18" height="10"/><rect x="522" y="50" width="18" height="10"/><rect x="552" y="50" width="18" height="10"/><rect x="18" y="60" width="48" height="10"/><rect x="72" y="60" width="30" height="10"/><rect x="126" y="60" width="30" height="10"/><rect x="168" y="60" width="30" height="10"/><rect x="234" y="60" width="48" height="10"/><rect x="306" y="60" width="30" height="10"/><rect x="348" y="60" width="24" height="10"/><rect x="378" y="60" width="30" height="10"/><rect x="414" y="60" width="30" height="10"/><rect x="450" y="60" width="24" height="10"/><rect x="480" y="60" width="30" height="10"/><rect x="516" y="60" width="24" height="10"/><rect x="546" y="60" width="30" height="10"/></g><g fill-opacity="0.34"><rect x="66" y="10" width="12" height="10"/><rect x="108" y="10" width="12" height="10"/><rect x="288" y="10" width="12" height="10"/><rect x="342" y="10" width="12" height="10"/><rect x="414" y="10" width="18" height="10"/><rect x="510" y="10" width="12" height="10"/><rect x="72" y="20" width="6" height="10"/><rect x="348" y="20" width="6" height="10"/><rect x="516" y="20" width="6" height="10"/><rect x="0" y="30" width="12" height="10"/><rect x="36" y="30" width="6" height="10"/><rect x="72" y="30" width="6" height="10"/><rect x="102" y="30" width="18" height="10"/><rect x="138" y="30" width="6" height="10"/><rect x="162" y="30" width="12" height="10"/><rect x="192" y="30" width="12" height="10"/><rect x="228" y="30" width="30" height="10"/><rect x="282" y="30" width="18" height="10"/><rect x="318" y="30" width="6" height="10"/><rect x="348" y="30" width="6" height="10"/><rect x="372" y="30" width="12" height="10"/><rect x="408" y="30" width="12" height="10"/><rect x="444" y="30" width="12" height="10"/><rect x="474" y="30" width="12" height="10"/><rect x="516" y="30" width="6" height="10"/><rect x="540" y="30" width="12" height="10"/><rect x="6" y="40" width="6" height="10"/><rect x="36" y="40" width="6" height="10"/><rect x="72" y="40" width="6" height="10"/><rect x="114" y="40" width="6" height="10"/><rect x="168" y="40" width="6" height="10"/><rect x="198" y="40" width="18" height="10"/><rect x="294" y="40" width="6" height="10"/><rect x="348" y="40" width="6" height="10"/><rect x="378" y="40" width="6" height="10"/><rect x="414" y="40" width="6" height="10"/><rect x="450" y="40" width="6" height="10"/><rect x="480" y="40" width="6" height="10"/><rect x="516" y="40" width="6" height="10"/><rect x="558" y="40" width="6" height="10"/><rect x="6" y="50" width="6" height="10"/><rect x="36" y="50" width="6" height="10"/><rect x="72" y="50" width="6" height="10"/><rect x="114" y="50" width="6" height="10"/><rect x="168" y="50" width="6" height="10"/><rect x="246" y="50" width="12" height="10"/><rect x="294" y="50" width="6" height="10"/><rect x="348" y="50" width="6" height="10"/><rect x="378" y="50" width="6" height="10"/><rect x="414" y="50" width="6" height="10"/><rect x="450" y="50" width="6" height="10"/><rect x="480" y="50" width="6" height="10"/><rect x="516" y="50" width="6" height="10"/><rect x="540" y="50" width="12" height="10"/><rect x="6" y="60" width="12" height="10"/><rect x="114" y="60" width="12" height="10"/><rect x="222" y="60" width="12" height="10"/><rect x="294" y="60" width="12" height="10"/><rect x="12" y="70" width="48" height="10"/><rect x="66" y="70" width="30" height="10"/><rect x="120" y="70" width="30" height="10"/><rect x="162" y="70" width="30" height="10"/><rect x="228" y="70" width="48" height="10"/><rect x="300" y="70" width="30" height="10"/><rect x="342" y="70" width="24" height="10"/><rect x="372" y="70" width="30" height="10"/><rect x="408" y="70" width="30" height="10"/><rect x="444" y="70" width="24" height="10"/><rect x="474" y="70" width="30" height="10"/><rect x="510" y="70" width="24" height="10"/><rect x="540" y="70" width="30" height="10"/></g></svg>
